<svg width="1600" height="1000" viewBox="0 0 1600 1000" xmlns="http://www.w3.org/2000/svg" role="img" aria-labelledby="title desc">
  <title id="title">Renovation globale</title>
  <desc id="desc">Illustration d'un chantier de renovation globale avec maison et plans.</desc>
  <defs>
    <linearGradient id="bg" x1="0" y1="0" x2="1" y2="1">
      <stop offset="0" stop-color="#bbdaad"/>
      <stop offset="0.48" stop-color="#627c4e"/>
      <stop offset="1" stop-color="#1a2616"/>
    </linearGradient>
    <linearGradient id="paper" x1="0" y1="0" x2="1" y2="1">
      <stop offset="0" stop-color="#ffffff"/>
      <stop offset="1" stop-color="#eaf9e2"/>
    </linearGradient>
  </defs>
  <rect width="1600" height="1000" fill="url(#bg)"/>
  <path d="M0 720 C235 610 520 640 770 580 C1040 515 1290 555 1600 455 V1000 H0 Z" fill="#0d1612" opacity="0.75"/>
  <g transform="translate(310 215)">
    <rect x="675" y="250" width="290" height="220" rx="18" fill="url(#paper)" opacity="0.95" transform="rotate(8 820 360)"/>
    <path d="M720 325 H895 M720 365 H875 M720 405 H845" stroke="#627c4e" stroke-width="12" stroke-linecap="round" opacity="0.65"/>
    <path d="M35 290 L390 65 L745 290 Z" fill="#1f2d18"/>
    <rect x="105" y="290" width="570" height="315" rx="22" fill="#f5ffef"/>
    <path d="M145 290 L390 140 L635 290 Z" fill="#c45c3d"/>
    <rect x="170" y="375" width="130" height="120" rx="8" fill="#344d28"/>
    <rect x="485" y="375" width="130" height="120" rx="8" fill="#344d28"/>
    <rect x="350" y="425" width="95" height="180" rx="8" fill="#1f2d18"/>
    <path d="M70 640 H710" stroke="#9bbf88" stroke-width="30" stroke-linecap="round"/>
  </g>
  <circle cx="218" cy="245" r="105" fill="#d4a574" opacity="0.3"/>
  <circle cx="1320" cy="180" r="165" fill="#f5ffef" opacity="0.22"/>
</svg>
