<svg width="1600" height="1000" viewBox="0 0 1600 1000" xmlns="http://www.w3.org/2000/svg" role="img" aria-labelledby="title desc">
  <title id="title">Equipe Ateliers Haussmann</title>
  <desc id="desc">Illustration d'une equipe artisanale devant une facade renovee.</desc>
  <defs>
    <linearGradient id="bg" x1="0" y1="0" x2="1" y2="1">
      <stop offset="0" stop-color="#eaf9e2"/>
      <stop offset="0.5" stop-color="#627c4e"/>
      <stop offset="1" stop-color="#1a2616"/>
    </linearGradient>
    <linearGradient id="wall" x1="0" y1="0" x2="1" y2="1">
      <stop offset="0" stop-color="#fff8ec"/>
      <stop offset="1" stop-color="#d2eac6"/>
    </linearGradient>
  </defs>
  <rect width="1600" height="1000" fill="url(#bg)"/>
  <path d="M0 725 C260 610 505 650 780 575 C1030 505 1290 545 1600 450 V1000 H0 Z" fill="#0d1612" opacity="0.8"/>
  <g transform="translate(380 205)">
    <rect x="45" y="160" width="780" height="410" rx="26" fill="url(#wall)"/>
    <path d="M0 160 L435 20 L870 160 Z" fill="#1f2d18"/>
    <path d="M130 160 L435 70 L740 160 Z" fill="#c45c3d"/>
    <rect x="130" y="250" width="140" height="130" rx="8" fill="#344d28" opacity="0.8"/>
    <rect x="590" y="250" width="140" height="130" rx="8" fill="#344d28" opacity="0.8"/>
    <rect x="390" y="315" width="100" height="255" rx="9" fill="#1f2d18"/>
  </g>
  <g transform="translate(485 615)">
    <g fill="#f5ffef">
      <circle cx="80" cy="0" r="42"/>
      <circle cx="225" cy="-18" r="44"/>
      <circle cx="370" cy="0" r="42"/>
      <circle cx="515" cy="-15" r="44"/>
    </g>
    <g fill="#344d28">
      <path d="M15 145 C22 62 138 62 145 145 Z"/>
      <path d="M160 145 C168 48 282 48 290 145 Z"/>
      <path d="M305 145 C312 62 428 62 435 145 Z"/>
      <path d="M450 145 C458 48 572 48 580 145 Z"/>
    </g>
    <path d="M0 160 H600" stroke="#c45c3d" stroke-width="18" stroke-linecap="round"/>
  </g>
  <circle cx="1280" cy="160" r="180" fill="#f5ffef" opacity="0.24"/>
</svg>
