<svg width="1600" height="1000" viewBox="0 0 1600 1000" xmlns="http://www.w3.org/2000/svg" role="img" aria-labelledby="title desc">
  <title id="title">Ballon thermodynamique</title>
  <desc id="desc">Illustration d'un ballon thermodynamique dans un local technique propre.</desc>
  <defs>
    <linearGradient id="bg" x1="0" y1="0" x2="1" y2="1">
      <stop offset="0" stop-color="#f5ffef"/>
      <stop offset="0.55" stop-color="#7a9e69"/>
      <stop offset="1" stop-color="#1f2d18"/>
    </linearGradient>
    <linearGradient id="tank" x1="0" y1="0" x2="1" y2="1">
      <stop offset="0" stop-color="#ffffff"/>
      <stop offset="0.55" stop-color="#eaf9e2"/>
      <stop offset="1" stop-color="#bbdaad"/>
    </linearGradient>
  </defs>
  <rect width="1600" height="1000" fill="url(#bg)"/>
  <path d="M0 755 C270 670 535 700 790 630 C1085 548 1320 610 1600 505 V1000 H0 Z" fill="#0d1612" opacity="0.78"/>
  <g transform="translate(560 150)">
    <rect x="150" y="110" width="330" height="620" rx="165" fill="url(#tank)" stroke="#f5ffef" stroke-width="10"/>
    <rect x="205" y="135" width="220" height="86" rx="43" fill="#344d28"/>
    <circle cx="315" cy="430" r="115" fill="none" stroke="#627c4e" stroke-width="20" opacity="0.78"/>
    <path d="M315 315 V545 M200 430 H430 M235 350 L395 510 M395 350 L235 510" stroke="#344d28" stroke-width="11" stroke-linecap="round" opacity="0.55"/>
    <rect x="252" y="632" width="126" height="28" rx="14" fill="#c45c3d"/>
    <path d="M480 170 C620 170 620 310 760 310" stroke="#f5ffef" stroke-width="34" stroke-linecap="round" opacity="0.9"/>
    <path d="M150 180 C15 180 15 305 -115 305" stroke="#f5ffef" stroke-width="28" stroke-linecap="round" opacity="0.72"/>
  </g>
  <rect x="115" y="625" width="260" height="70" rx="35" fill="#c45c3d" opacity="0.45"/>
  <rect x="1165" y="360" width="260" height="70" rx="35" fill="#d4a574" opacity="0.4"/>
</svg>
