<svg width="1600" height="1000" viewBox="0 0 1600 1000" xmlns="http://www.w3.org/2000/svg" role="img" aria-labelledby="title desc">
  <title id="title">Maison renovee avec jardin</title>
  <desc id="desc">Illustration architecturale d'une maison renovee pour le hero du site Ateliers Haussmann.</desc>
  <defs>
    <linearGradient id="sky" x1="0" y1="0" x2="1" y2="1">
      <stop offset="0" stop-color="#f5ffef"/>
      <stop offset="0.52" stop-color="#9bbf88"/>
      <stop offset="1" stop-color="#344d28"/>
    </linearGradient>
    <linearGradient id="house" x1="0" y1="0" x2="1" y2="1">
      <stop offset="0" stop-color="#fff8ec"/>
      <stop offset="1" stop-color="#d2eac6"/>
    </linearGradient>
    <filter id="soft" x="-20%" y="-20%" width="140%" height="140%">
      <feGaussianBlur stdDeviation="18"/>
    </filter>
  </defs>
  <rect width="1600" height="1000" fill="url(#sky)"/>
  <circle cx="1320" cy="170" r="190" fill="#f5ffef" opacity="0.45" filter="url(#soft)"/>
  <path d="M0 710 C250 610 450 650 700 585 C1010 505 1280 570 1600 460 V1000 H0 Z" fill="#1f2d18" opacity="0.86"/>
  <path d="M0 805 C285 735 530 760 780 705 C1045 647 1300 690 1600 610 V1000 H0 Z" fill="#627c4e"/>
  <g transform="translate(445 340)">
    <path d="M0 245 L330 40 L660 245 Z" fill="#1f2d18"/>
    <rect x="70" y="245" width="520" height="300" rx="18" fill="url(#house)"/>
    <path d="M110 245 L330 105 L550 245 Z" fill="#c45c3d"/>
    <rect x="150" y="320" width="105" height="120" rx="6" fill="#344d28" opacity="0.78"/>
    <rect x="405" y="320" width="105" height="120" rx="6" fill="#344d28" opacity="0.78"/>
    <rect x="285" y="365" width="90" height="180" rx="8" fill="#1f2d18"/>
    <path d="M260 560 H400" stroke="#c45c3d" stroke-width="12" stroke-linecap="round"/>
  </g>
  <g opacity="0.35">
    <circle cx="260" cy="675" r="95" fill="#9bbf88"/>
    <circle cx="1340" cy="640" r="120" fill="#9bbf88"/>
    <rect x="0" y="0" width="1600" height="1000" fill="#0d1612" opacity="0.1"/>
  </g>
</svg>
